<mxfile host="Electron" agent="Mozilla/5.0 (Windows NT 10.0; Win64; x64) AppleWebKit/537.36 (KHTML, like Gecko) draw.io/26.0.9 Chrome/128.0.6613.186 Electron/32.2.5 Safari/537.36" version="26.0.9">
  <diagram name="Page-1" id="lF3iOOc6oBJpgpGATvJm">
    <mxGraphModel dx="488" dy="315" grid="1" gridSize="10" guides="1" tooltips="1" connect="1" arrows="1" fold="1" page="1" pageScale="1" pageWidth="570" pageHeight="940" math="0" shadow="0">
      <root>
        <mxCell id="0" />
        <mxCell id="1" parent="0" />
        <mxCell id="3lYenirFhpicPW8Y7H2U-1" value="Browser" style="rounded=1;whiteSpace=wrap;html=1;fillColor=none;" vertex="1" parent="1">
          <mxGeometry x="200" y="290" width="120" height="40" as="geometry" />
        </mxCell>
        <mxCell id="3lYenirFhpicPW8Y7H2U-2" value="Web Server" style="rounded=1;whiteSpace=wrap;html=1;fillColor=none;" vertex="1" parent="1">
          <mxGeometry x="200" y="140" width="120" height="40" as="geometry" />
        </mxCell>
        <mxCell id="3lYenirFhpicPW8Y7H2U-3" value="" style="endArrow=classic;html=1;rounded=0;bendable=0;exitX=0.25;exitY=0;exitDx=0;exitDy=0;entryX=0.25;entryY=1;entryDx=0;entryDy=0;" edge="1" parent="1" source="3lYenirFhpicPW8Y7H2U-1" target="3lYenirFhpicPW8Y7H2U-2">
          <mxGeometry width="50" height="50" relative="1" as="geometry">
            <mxPoint x="280" y="260" as="sourcePoint" />
            <mxPoint x="330" y="210" as="targetPoint" />
          </mxGeometry>
        </mxCell>
        <mxCell id="3lYenirFhpicPW8Y7H2U-4" value="" style="endArrow=classic;html=1;rounded=0;bendable=0;exitX=0.75;exitY=1;exitDx=0;exitDy=0;entryX=0.75;entryY=0;entryDx=0;entryDy=0;" edge="1" parent="1" source="3lYenirFhpicPW8Y7H2U-2" target="3lYenirFhpicPW8Y7H2U-1">
          <mxGeometry width="50" height="50" relative="1" as="geometry">
            <mxPoint x="240" y="190" as="sourcePoint" />
            <mxPoint x="240" y="300" as="targetPoint" />
          </mxGeometry>
        </mxCell>
        <mxCell id="3lYenirFhpicPW8Y7H2U-5" value="&lt;font&gt;HTTP&amp;nbsp;&lt;/font&gt;&lt;div&gt;&lt;font&gt;request&lt;/font&gt;&lt;/div&gt;" style="text;html=1;align=center;verticalAlign=middle;whiteSpace=wrap;rounded=0;" vertex="1" parent="1">
          <mxGeometry x="160" y="220" width="70" height="30" as="geometry" />
        </mxCell>
        <mxCell id="3lYenirFhpicPW8Y7H2U-6" value="HTML+CSS+JS" style="text;html=1;align=center;verticalAlign=middle;whiteSpace=wrap;rounded=0;" vertex="1" parent="1">
          <mxGeometry x="300" y="225" width="90" height="20" as="geometry" />
        </mxCell>
      </root>
    </mxGraphModel>
  </diagram>
</mxfile>
